<?xml version="1.0" encoding="UTF-8"?>
<svg id="Lag_2" data-name="Lag 2" xmlns="http://www.w3.org/2000/svg" viewBox="0 0 416.93 426.76">
  <defs>
    <style>
      .cls-1 {
        fill: #111926;
      }
    </style>
  </defs>
  <g id="Lag_1-2" data-name="Lag 1">
    <g>
      <path class="cls-1" d="m180.18,216.61s-.02.1-.03.15c.04,0,.09.01.13.02-.06-.05-.05-.11-.09-.17Z"/>
      <path class="cls-1" d="m408.74,271.86c-.09-6.38-4.45-5.82-2.79-8.52.34-.26.24-.72-.13-.88-5.69-6.2-8.55-15.02-13.91-21.82-8.9-10.18-20.51-16.96-30.59-25.77-2.71-2.6-11.42-7.2-11.88-10.63,0-.43-.32-.63-.74-.55-2.1.4-5.25-2.7-6.31-4.42.01-1.61-1.99-1.2-3.07-1.57-2.62-.37-4.01-3.11-6.56-3.84-1.96-.73-3.37-2.41-5.44-2.89-5.9-5.68-12.86-10.18-19.19-15.4-3.35-3.86-9.29-4.82-11.94-9.1-1.3-4.25-7.23-17.83-2.81-20.52,6.31-3.55,6.04-11.22,8.66-17.15,4.22-9.64,14.72-58.9-8.39-44.66-1.8,2.95-4.88,9.54-4.33,2.93-1.25-14.53-.79-29.38-3.47-43.89-1.29-20.46-19.2-36.82-37.54-43.19-.37.24.21.86,1.39,1.27,4.09,1.68,3.69,8.02,8.35,10.03,3.16,2.41-1.16,2.15,4.32,5.17,2.48,1.7-3.7,3.57-.87,5.32,1.79.26,4.36,2.16,2.41,3.99-.3.63.57.63.97.51,2.32-.8,1.67,3.19,3.68,4.16.45.33.47.8.03,1.07-1.56.82-.2,2.02.03,3.16.1.63.34.97,1,1.2.64.23.91,1.64.38,2-.69.48-.76.73-.34,1.49,1.14,1.92-3.3,3.14-.94,5.36.38.33,1.54,1.23.37,1.37-1.64.04-2.87-1.23-4.13-2.06-3.71-2.06.16-6.78-3.31-8.69-1.83-1.02-3.01,1.68-1.93,2.98.45.71,2.08,1.97.61,2.53-1.81.34-3.23,2.25-2.74,4.15.12,2.46-3.37,3.87-3.08,6.52.07,1.27.1,5.36,2.19,3.47,3.07-6.42,5.27,4.38,6.29,6.72-.14,3.06-1.26.16-2.42.73-.54,1.75,2.06,2.92,2.52,4.61.3.94,1.61,1.47,1.32,2.52-.71,1.43,3.43,4.78,1.98,1.46-1.54-2.21,1.64-2.59.86-4.32-.37-.81-1.27-.37-1.92-.4-1.42-.19-1.45-1.71-.5-2.49.81-.94-.72-1.32-.83-2.11-.93-14.91,4.99-2.78,9.35-5.42,1.85-.49,1.17,1.9,1.29,2.97.63.26.86-.28,1.25-.38,2.58-.49,1.23,2.65-.24,3.28,1,1.51,2.72,1.86,2.95,3.72.47,1.07,1.36,1.96.65,3.2-.25,1.27-1.64.95-2.56,1.48-2.41.87-2.28-2.89-1.9-4.44-3.52,1.7-4.68-3.05-5.84,1.4-.19.84.09,1.5,1.49,1.62,1.11.02.32,1.13.5,1.64.77.6-.16.99-.12,1.46.69,3.41-3.53,1.83-5.14,3.41-2.06.31-2.39,3.3-4.54,3.54-7.09,1.42-.47,9.23-1.79,12.95-1.56,1.75-4.82-2.3-5.56.56-.29.92-.67,1.78-1.54,2.23-1.23,1.05-8.04,4.61-6.3,6.18,1.15.74,2.35,1.46,2.68,2.89.21,2.35-6.08-1.07-7.68-.61-4.19.19-8.9-.48-13.08.43-3.54-.02-7.16,6.05-10.14,2.06-2.21-6.19,9.18-1.2,11.76-4.78-.56-.11-1.77-.07-1.38-.99.39-1,.38-1.05-.27-1.52-.86-.64-.93-.65-1.85-.07-1.02.55-4.06,1.65-3.17-.47-3.54.65-6.11,4.53-9.7,5.48-1.93.74-3.2,3.36-1.55,5.04.26.26.38.78.34,1.17-1.16,6.83-3.45,15.62-1.4,22.25,2.04,2.24-.05,5.5,1.91,7.89.55.99-.52,2.39.8,3.08,2.18,4.61-4.53,7.88-4.26,12.29-1.36,4.91-8.42,1.15-10.22-1.83-2.17-2.83-6.38.22-4.22,3.12,4.18-.59.09,4.39-.99,5.59-1.81,1.09-2.83,2-1.61,4.25h0s0,0,0,0c1.85.55,1.62-2.78,3.12-3.57,0,0,0,0,0,0,.01,0,.03-.01.04-.02.06-.03.13-.05.2-.08-.21,1.16-1.72,3.49-.66,4.21-.03.14-.05.26-.06.34l.05-.02c-.69.92.45,1.85.82,2.72,0,.03-.01.06-.02.09h.05s0-.03,0-.03c.29-.14.33-.48.44-.75-.13.25-.28.49-.45.73.28-.61.6-1.28.91-1.97-.16.41-.31.83-.47,1.24.05-.1.1-.21.15-.31-.12.29-.24.59-.36.88-.18,1.12-.86,1.22-1.82,1.24-.58.59-.36,1.28-.24,1.97-.05,1.1-1.23.29-1.11-.46-.36-2.35,1.63-4.26-2.35-2.74-1.26.58,1.24,1.64,1.05,2.87.16.96-.13,1.79-1.23.98-.61-.81.36-3.05-1.45-2.6-1.05.37-1.96-.24-2.95-.1-1.73.44,2.28-11.64-3.54-4.65-.25-1.22.92-1.8.63-2.9-1.59-1.01-1.67,4.82-2.68,3.01h0c.22-.82-.2-1.71.42-2.39-.04-.03-.09-.07-.13-.1.78-1.46,2.68-2.27,3.08-3.75-1.21.63-3.18,2.04-3.21,3.64-.36-.27-.78-.58-1.01-.78.02,0,.07.03.13.07.3-2.06,3.99-2.77,3.4-4.86-2.62,1.73-4.86,3.64-5.93,6.64-.26.76-1.83,2.23-.45,2.62.24.05.6-.1.63.44-5.54,2.41-1.98,2.91-3.01,7.25-.17,1.86,1.87.48.86,4.58-.3.69-1.07.08-.96-.48.26-1.38-1.84-.76-2.66-1.18-.1-.84.74-.94,1.11-1.4,2.1-1.88-.32-3.83-2.5-4.21-2.53-6.64-8.47-3.97-14-3.97-15.87-.8-24.58,1.45-38.3,8.73-.71-.02-1.21.34-1.54.98-4.03,4.49-9.37,7.9-13.36,12.59-8.3,7.99-12.8,18.7-19.71,27.77-11.36,15.69-22.92,31.27-30.43,49.31-6.26,10.47-8.29,22.8-11.05,34.43-4.78,9.98-10.62,19.51-14.83,29.72-3.8,16.74-9.43,32.72-12.33,49.47-.76,4.19-3.73,7.53-4.73,11.61-.49,4.86-2.02,9.46-3.37,14.12-2.48,6.38-5.72,12.48-6.08,19.49h91.15c.17-2.37-1.67-5.27.96-6.87,1.78-1.31,2.19-3.79,3.53-5.51,1.94-2.56,3.44-5.25,3.45-8.53,1.3-.73,1.49,5.03,2.13,6.06,1.35,2.89,2.61,5.79,3.38,8.92.42,2.16,2.6,3.39,2.46,5.67.08.09.16.18.24.27h309.63c-1.71-13.79,2.16-145.85-8.19-154.9Zm-102.98-175.34c.8.66,1.1,2.08.27,2.55-.61-.54-.12-1.77-.27-2.55Zm-.77,6.08c.48-1.96,1.27-1.41,1.11.42.03,1.28-1.32,1.6-1.11-.42Zm-9.38,2.4c2.95-2.91,6.32,4.46,6.16,7.08.54,1.81-4.35,13.27-5.36,7.6.7-3.51-2.2-3.83.05-9,.84-1.95-1.69-3.55-.85-5.67Zm-26.53-79.16c-.68.07-.77-.76-.47-1.17.74-.06.91.88.47,1.17Zm-3.77,26.21c-.96-.11-4,.46-3.24-1.25,2.17-1.09,3.33-8.53,4.74-2.31-.55,1.08-.4,2.97-1.5,3.57Zm7.85-8.75c-.09-.52-.67-.94.12-1.18.14.52.66.97-.12,1.18Zm-77.32,122.85c.05-.23.08-.47.12-.71-.27.59-.61,1.13-1.12,1.57.56-.5.88-1.12,1.15-1.77-.01.07-.02.13-.03.2.08-.17.15-.35.22-.53-.12.41-.22.84-.35,1.24Zm-15.67-2.03s-.02.09,0,.13c0-.03-.01-.06-.01-.09,0-.01.01-.02.02-.04Zm-84.33,231.26c-.47-3.11-7.2-8.59-4.53-11.04,4.69-2.95,3.85,8.63,5.16,11.63-.45-.4-.59-.47-.63-.59Zm73.23-220.84c.06-.27.12-.5.17-.72-.05.22-.11.45-.17.72.14-.24.24-.41.31-.56-.07.15-.17.33-.31.56Zm.41-1.77c-.02.09-.04.19-.06.28.02-.12.04-.23.06-.35,0,.03,0,.05,0,.07,0,0,0,0,0,0,.02.21.04.38.04.53,0-.14-.02-.31-.04-.52Zm109.45-110.66c-1.32-.57-.83-1.81.38-2.04,2.14.17,1.56,1.89-.38,2.04Zm-5.85,88.3c.68.84.47,2.48.4,3.57-.09.03-.18.05-.27.09.03-1.18-.63-2.62-.13-3.66Zm-3.04-73.17c.42-.45,1.79.11,1.85.99-.5,1.73-2.59.05-1.85-.99Zm-4.67,1.23c1.15-.47,1.29.78,1.01,1.6,2.51,2.33-3.32,3.2-3.28-.13-.22-1.15,1.54-1.07,2.27-1.46Zm.33,79.89c-.22.29-.32.18-.51-.05.09-.07.17-.13.26-.2.08.09.17.17.26.25Zm-6.1-74.55c3.18,5.87,2.53-1.9,4.01,4.4-1.3,1.28-6.65-5.01-4.01-4.4Zm2.35,25.96c-1.56,1.65-2.77-2.69-.71-2.06.26.63.45,1.29.71,2.06Zm-25.7.31c2,.06,1.4,2.08-.38,1.6-1.05-.27-1.08-1.67.38-1.6Zm-19.16,6.45c1.52-.08-1.87-2.7,1.17-3.08,3.77-.16,7.79-.47,11.38-1.19-.74-1.38-2.37-2.07-.68-3.91,3.44-2.03,2.91,4.84,6.06,4.61,1.79.51,5.52-.82,6.45.82.08.74-.13,1.77.86,1.95.7.14.79.66.88,1.27.32,2.99,4.91.75,6.95,1.04,4.04-.96,5.62-5.86,9.96-6.51.9-.35,1.64.74,1.34,1.56-.45,1.75-4.26-.8-3.31,2.13.51,1.48,4.73.34,2.58,2.33-.53.47-.41,1.03.02,1.5,2.15,2.46-1.66,1.94-3.12,2.75.11,1.23,3.21.83,1.87,2.4-1.57,1.51,3.79,2.95,3.88,4.53-1.42.32-3.51-1.92-5.09-1.04.59.88,5.07,2.23,2.91,3.95-2.87,2.08,1.81,5.05-.84,7.09-.35.34-.68.77-.84,1.22-.32,1.74-2.79.71-2.86,2.64-.09.47.03.98.08,1.47.23,1.14-2,.01-1.46,1.34,4.06,4.22.3,7.36,2.82,11.85.42,2.02.29,4.14-2.22,2.39-.93-.61.26-1.47.44-2.12-.13-.93-1-1.86-1.98-1.97-3.22.06-22.72-15.14-17.87-4.46.03,0,.06.02.09.03h0s-.05-.02-.08-.03c-4.5-1.38-.64,2.75,1.1,3.66,0-.02-.01-.04-.02-.05.03-.11.06-.21.05-.32,0,.12-.02.24-.03.36.53.62,1.05,1.23,1.54,1.82-.57.86-1.87-1.09-2.73-.67.04.18.08.37.12.56h0s-.02.08-.04.11c.02-.04.03-.08.04-.11-1.46.08-2.39-1.61-3.55-2.35.08.4.16.8.24,1.19,0,.01,0,.03,0,.05,0,.05,0,.13,0,.22-.01-.11-.01-.2,0-.26-.88.09-1.62-.09-2.02-.99v.05c-.09-.03-.17-.04-.25-.05.03,0,.06,0,.09,0-.02,0-.05-.02-.07-.02.06.02.12.03.18.02-.57-.86-1.15-1.72-1.83-2.74,2.62.63,3.58-2.46,1-2.87-2.04.11-2.7-1.38-3.17-2.9-2.74-7.5,2.29-3.06-4.09-10.2-2.34-2.08-5.82-2.52-7.56-5.42-2.18-3.3-5.13-14.42,1.59-13.64Zm44.58,44.83c.32-.21.65-1.05,1.13-.67.43.54-.96,1.87-1.13.67Zm.79,4.88c-.18.05-.34.1-.49.15-.21-.46.32-.72.49-.15Zm-7.18,21.13q1.05-.02,1.92.52c-.82.32-1.25-.5-1.92-.52Zm.28,15.82c1.42.93.59,2.05,0,0h0Zm-.1-.13s-.03-.09-.06-.14c.01.02.02.03.04.05,0,0,0-.01,0-.02.02.03.04.05.05.08-.02-.02-.03-.04-.05-.06,0,.03.01.06.02.09Zm.04.04s0,0,0,0c0,0,0,0,.01-.01,0,0,0,0,0,0-.01.02-.03.03-.04.04l.03-.03Zm-2.18-11.95c-.2-.26-.25-.53-.26-.61-.26-1.95-2.77-2.16-3.16-4.06h.02v-.59c1.26.81,1.85,2.53,3.35,3.24.08.04.29.16.47.41.41.57.26,1.39.06,2,0,0-.01-.01-.02-.02-.13-.07-.31-.18-.46-.37Zm.14,7.25c-.32.14-.38.01-.43-.28.32-.14.37,0,.43.28Zm-12.17-40.14c1.21.6,1.59,1.73,2.87,1.45.16-1.41-4.74-2.55-3.49-3.61,1.66.49,10.7,8.33,6.4,1.65.74.15.78.16,1.19.53h0c1.27,1.49,2.23,1.52,4.05,1.07.11.67-.75.74-.81,1.28-.06.62-.59.71-1.11.75-.37.42-.79.91-1.38.61-2.46-1.45-6.69-.49-7.72-3.74Zm7.13,22.11c-.09-.09-.18-.19-.28-.28.1-.05.2-.11.29-.16.05.18.28.36-.01.44Zm4.25,4.78c.26.18.5.38.72.55-.18.78-1.21-.33-.72-.55Zm-21.52-28.58c.47.3,1.2.42,1.59.79.22,1.11,1.05,2.39.86,3.45-2.02-1.39-3.57-3.37-5.23-5.1.92-.94,1.9.55,2.79.86Zm2.39.13c.12.24.27.45.45.56-.18-.11-.33-.32-.45-.56Zm-5.68,3.04c-.43.19-.56-.13-.16-.34.05.11.1.23.16.34Zm-1.13,9.02c-.19.68-.8.34-.99-.06.42-.24.75-.61.99.06Zm-2.77-11.16c-.04-.14.05-.44.26-.47,3.21,2.52,2.28,5.33-.26.47Zm-2.49-8.91c.24.51-.06.79-.61.74-2.07-.14-2.64-5.63-2.79-7.43-.02-4.11,6.43-2.12,5.66,1.69-.27,4.19-3.04,3.18-2.26,5Zm-.5,17.63l-.05-.02c.17.61.33,1.21.52,1.94-1.52-.22-2.68-1.79-2.61-3.33-.05-1.64-1.24-2.85-.39-4.63,1.05,2.05,1.49,4.04,2.53,6.04Zm-.46-5.9s.03-.05.03-.07c0,0,0,.02,0,.03,0,.01-.01.03-.03.05Zm-3.08,8.07l-2.62,1.06c-1.41-6.74-1.32-6.87,2.62-1.06Zm-5.38,1.03c.02.11.04.22.07.33-.25.1-.17-.15-.23-.3.05-.01.11-.02.16-.03Zm-2.22-.16c.03.11.05.22.07.33-.05.02-.1.04-.16.07-.01-.17-.17-.36.08-.4Zm-6.95-3.9c1.09.85-.63,1.98.4,3.09.39.52-.08,1.34-.55,1.9-.05.07-.36.03-.36,0-.36-1.27-1.65-1.08-2.48-1.65,0,0,0,0,0,0h-.02c1.88-.38,2.53-1.59,3.01-3.33Zm-2.77-1.57c-.43-.69-.81-.71-1.17-.33.36-.38.74-.37,1.17.33Zm-2.22-.64c.18.48-.05,1.05-.34,1.64.17-.57.29-1.12.34-1.64Zm-.53,2.22c.17-.37.34-.74.52-1.11-.21.44-.41.88-.6,1.33.03-.07.05-.15.07-.22Zm-.21-2.78s0,0,0,0h-.02s0,0-.01,0c0,0,.02,0,.03,0Zm0,0s0,0,0,0c0,0,0,0,0,0,0,0,0,0,0,0Zm-.04.08c-.22.36-.39.76-.55,1.15-.05.04-.08.1-.12.15.18-.45.38-.89.67-1.29Zm-.41,4.4s0,.01,0,.02c0,0,0,0,0,0,0,0,0,0,0,0Zm1.04-1.11c-.49,1.32-1,2.75-1.6,3.41.6-.65,1.11-2.09,1.6-3.41Zm-10.51,11.66l-1.82,1.35c-1.37-.25.74-1.68,1.82-1.35Zm-3.98-.11s-.05-.03-.08-.03c0,0,0,0-.01,0,.04.01.08.03.09.04Zm-.15-.11s0,.02,0,.03c0,0-.01-.01-.01-.02t0-.01Zm-3.78-10.78s0-.02.02-.03c0,0,0,0,0,0,0-.01.02-.02.03-.03,0,0,.01,0,.02,0-.01.01-.03.02-.04.04-.05.06-.08.14-.1.22.02-.06.04-.13.08-.18Zm-.4,1.84c.04-.11.09-.21.13-.32-.05.13-.09.25-.12.38,0-.02,0-.04,0-.06-.03-.21-.08-.46-.11-.7.03.24.08.49.11.7Zm-.01.03s0,0,0,.02c0,0,0,0,0,0,0,0,0,.02,0,.03-.54.24-.9.51-1.12.78.22-.28.58-.57,1.12-.82Zm-.8,1.92c-.15.09-.29.09-.4.02.11.06.25.06.4-.02Zm-1.68,19.16l-1.07,3.16c-.64-.98.69-2.23,1.07-3.16Zm-3.16,14.41c-.11-.32-.05-.61,0-.94.32.06.2.81,0,.94Zm.42,4.42v-.03l.09-1.45c-.04.5-.06.99-.09,1.48Zm.09-1.51c0,.13-.02.25-.03.38,0-.13.02-.26.03-.38,0,0,0,0,0,0Zm23.34,39.83c-.38-.36.34-.76.7-.69.05.55-.2.67-.7.69Zm4.14-2.83c.11.09.23.09.37,0-.13.09-.25.11-.37,0Zm.65-.23s0,0,0,0c-.09-.11-.17-.17-.24-.2.08.03.15.09.24.2,0,0,0,0,0,0Zm10.26-9.39c-.1-.08-.24-.06-.36-.11h0c.09.03.17.05.26.06-.08-.04-.16-.08-.24-.1h0c.09.03.17.08.26.11,0,0-.02,0-.02,0,.03.02.06.04.09.06h0Zm11.56,9.35s.02.03.03.05c.04.08,0,.31.05.52-.05-.14-.09-.32-.08-.56Zm43.95-11.93c-11.1,8.25-28.17,15.74-40.99,7.61-1.29-.35-.36,2.42-.63,3.23-.9-.05-.72-1.47-1.15-2.11-2.91-1.71-2.17,1.57-1.19,3.2h0c-2.73.2-1.29-3.45-3.74-3.75-.59-.53-1.1-.44-1.68.08-1.15.77.01.8.6,1.48-.45.6-1.26.51-1.56,1.27-.45.67-.76-.59-1.4-.18-1.88.13-.39-2.12-.04-2.84.51-.53.68-.69-.1-.97-.48-.17-.9-.35-.93-1-.03-.61-.66-.38-1-.58-.86-.7.72-1.06,1.18-1.42.09-.3.19-.57.28-.81h-.82c-.1.15-.3.19-.67.04-.3-.96-.99-.67-1.64-.71.89-1.21-.39-2.72.69-3.8.05-.78-.2-1.5-.63-2.2-.97-1.57-2.77-2.97-3.67-4.47h.01s-.04-.06-.06-.09c0,.03.02.04.02.07,0,0,0,0,.01.02-.01-.02-.02-.03-.03-.03,0,0,0,0,.01.01,0-.01,0-.02-.01-.03,0-.01,0-.03,0-.04,0,0,0,.01,0,.02h0c.11-1.13-1.6-1.03-1.63-.08.07,2.46,1.06,4.81.47,7.29-.08,1.49-1.03,4.28,1.29,4.24.13.05-.16.25-.05.41-.03.04.35,0,.31.03-.17.19-.35.34-.59.42h0c.68,1.05,1.74,1.33,2.87,1.28.04.11.07.22.12.32,0,0,.01-.01.02-.02.06.83-.45,1.6-.16,2.43-.11.24-.22.47-.32.71-1.04-.36-.69-2.52-1.95-2.35-.4,2.5,2.91,3.54,1.06,6.58-.63.28-.56-.54-.97-.58-.47-.09-1.77,0-1.17-.81.15-.64,1.17-.43,1.09-1.17-.26-.59-.37-2.75-1.36-2.08-1.29,1.64-2.83-.45-1.42-1.33.59-.29.1-.7-.09-1.01-.95-.98-3.09,3.04-2.6,4.06-.53-.03-1.14-.02-1.76-.06-1.1-.07-2.21-.28-2.83-1.11-.13-.25-.26-.57-.6-.4-1.47,2.57,1.57,1.97,2.14,3.46.26.51.38,1.19.86,1.61h0s-.03-.01-.05-.02c-2.06-.86-4.41-2.34-5.48-4.29.34-1.38-.73-.96-1.45-1.3,1.15-5.3-5.35-.02-5.04-2.39.82-.43.51-1.21.65-1.83.73.08,1.43.16,2.28.25-.86-5.16.49-4.81-3.52-1.43-.85.24-1.11.8-1.37,1.57-.44-1.03.69-3.82-.8-3.66-.78-.11-.94-1.23-1.47-1.65-.98-.8-1.19-1.89-1.21-3.04l.05.05s.05-.01.07-.02c.01,0,.02,0,.03-.01,0,0,0,0-.02.01,2.88.75-1.09-5.26-.12-.22h0s0,.07.01.1c0-.01,0-.02,0-.03,0,.04,0,.09.02.12-.01,0-.02,0-.03,0h0s-.01-.01,0-.02h0s0,0,0,0c-1.18-1.29-.54-2.95-3.08-3.01,1.96-.13,2.07-1.02,2.06-2.59l-.04.03h0s0-.05-.03-.08c.01.03.02.05.03.08-1.55-1.47-.72-4.36-2.64-5.44,0,0,0-.01,0-.02-1.31-.16-.51,1.66-1.05,2.18-2.09-3.13.54-3.59-.08-6.42-.36.54-.8,1.39-1.54,1.44.32-1.97,2.04-3.19,2.23-5.22.07-.32.28-.8.52-.87,1.15-.3.82-1.15.81-1.89h0c-.84,1.42-1.27-.42-.1-.73-.66-.57-1.34-1.11-2.08-1.59h0c-3.4.93.6,5.98-2.99,6.7-2.39.45-.27-2.31-2.02-3.4,0,0-.02-.01-.03-.02h0s0,0,0,0c1.27-1.1.08-11.01-2.56-10.03.83-.56,1.91-2.39,2.85-2.22.46.42-.29.61-.32,1.16.74-.25,1.4-.47,2.06-.69,1.49.72,2.12-.7,3.08-1.27.34-.2.18-.59-.42-1.08h0s0,0,0,0c0,0,.02,0,.03,0l-.05-.02s-.09.06-.13.09c.05-.02.11-.04.17-.06-.1.04-.2.09-.29.14.04-.03.08-.05.13-.08-.05.02-.11.04-.16.06.1-.04.2-.09.29-.15,0,0,.06.02.06.02,5.05-6.41-.32-2.08.13-4.6.72-2.11,3.82-3,3.48-5.58-.08-.88.13-1.68.78-2.32.78.41-1.02,5.11-.05,5.19,1.1-.74.63,1.17.61,1.74.78-.49.61-1.55,1.34-2.06,1.06-.55,1.25.85.59,1.4.06-.05.11-.09.14-.15l-.16.14c.53,2.11,2.33-1.37,3.89-.92.95-.3,1.34-1.41,2.05-2.17-.61-.38-1.13-.08-1.63,0,.05.6-.35.81-.88.74-1.08-.28.8-1.95-.94-1.58-1.73-1.65-1.67,2.06-2.82.45.04-3.87,4.22-1.52,6.32-3.39.62-.38,1.34-.63,2.05-.4,2.74.6,5.53-.27,8.26-.49,7.58-2.54,12.15-5.21,19.97-1.32,5.83.27,5.21-.07,10.41,3.3.64-.77-.97-1.22-.24-1.85,1.31.44,4.11,4.85,2.03,5.79-.15.34-.78,1.41-.99.42l-.57.11c.26,2.75,5.08,3.45,4.77-.04-.36-2.23.94-.65,1.91-.34.34-.87-.32-1.54-.59-2.33-.75-1.48.4-2.4.45-4.09,1.13.85,1.15,2.31,2.68,1.08-.44,1.19-1.26,2.46.11,3.25-.03-.05-.07-.09-.11-.13.07.09.15.17.26.21-.05-.03-.09-.05-.14-.07.71.78,1.44,1.54,2.73,1.51.03-1.06-.68-1.56-1.44-2.04,4.12-1.16-1.04-3.79-1.61-5.4,3.1.34,3.37,3.5,5.46,4.73,1.56-.04,1.95,1.12,2.52,2.21-.18.08-.63.26-1.19.17-.46-.07-.78-.27-.94-.38l5.48,10.19c.4.43.5.94.31,1.22-.04.06-.12.15-.29.21.15,3.05-3.01-1.32-.39,4.29-.61.13-.57-.38-.8-.57-.9-1.52-2.01-.49-2.91.43,0,.02-.02.02-.03.03,0,0,0,0,0,.01,0,0,0,0,0-.01.01-.02.03-.03.03-.03s0,0,0-.01t0,0h0c.06-.08.04-.08-.07.07.47.63,1,1.19,1.64,1.65h0s-.03.04-.03.04c0,.07,0,.13,0,.2,0-.07,0-.14.02-.22.96-.53,1.15,1.42,1.61,2.06.02,0,.04,0,.06,0l-.02.05h0s.02-.05.02-.05c-.02,0-.04,0-.06,0-.45-.03-1.52.07-1.11.64,1.34,1.05,1.48,2.87,2.64,4.04.3,1.05-.88,1.61-1.43,2.47l1.11.16c.27-.75,1.12-.31,2.81,2.68,0,0-.02-.02-.03-.01.01.01.03.03.04.03,0,0,0,0,0-.01h0c2.99,1.21.72-1.5,4.07.47,6.23-.12.55,3.51,1.79,5.45,1.52-.13,4.77-2.8,4.63.6-.48,2.35,1.96,2.79,1.74,4.57-1.27,5.27,1.06,4.3,3.12.55,1.19-4.36-2.01-5-1.04-7.46.27-1.25-.29-2.94.15-4.19.28-.82.82-1.44.04-2.28-.19-.2-.04-.82.09-1.21.78-1.63.14-3.69,1.65-4.96,1.35-2.06,4.26,6.92,4.94,8.03.57,1.92.3,4.13.5,6.12,1.34,6.26-6.09,9.19-9.75,12.86Zm-56.48,5.56s-.1-.03-.15-.05c.05.02.1.03.15.05,0,0,0,0,0,0Zm-.72-.49l.03-.06s.08.08.12.11l-.16-.05Zm-1.39-5.07c-.09-.07-.19-.13-.34-.23.11-.16.22-.31.34-.47.23.24.18.44,0,.69Zm33.89-49.52s-.06.03-.09.05h0s0,0,0-.01c0,0,0,0-.01,0,.03-.02.07-.04.1-.05-.03.02-.07.03-.09.06.04-.02.07-.04.1-.05Zm35.38-10.83c-1.45,1.08-.92,3.65-3.16,3.59.82-2.46.88-3.91,3.63-4.66.24.57-.21.79-.47,1.07Zm1.38-7.15c-.63,2.13-3.26,1.71-3.95,4.02-.48,1.58.29,2.51-.38,4.55-.17.51-.45,1.04-.93,1.6-.7.82-.26,2.5-1.17,3.1-.92.2-.73-2.12-1.69-.47-.59.72-.69-1.08-1.21-.24-1.24,1.73-.16,3.3.54,5.05-1.17.13-1.85-.36-2.46-1.36-1.3,1.59-1.29,4.72-3.78,2.71-.58-.71-.16-2.02-1.23-2.33-1.52,5.33-1.4-1.44-2.94-1.89-.74,1.29-.03,3.2-.16,4.71-.09-.03-.22-.05-.35,0-.51.21-.36,1.41-.7,1.49-.05.01-.15,0-.33-.2-.64-.73-.11-1.53-.55-2.53-.43-.98-1.51-1.48-1.33-1.88,0-.02.01-.03.03-.05.25-.3,1.24.58,1.73.37,1.1-.47-.79-6.43-.96-6.39,0,0-.02,0-.03,0-.05-.03,0-.23.06-.34.1-.2.28-.35.38-.38.56-.19,1.55,2.42,2.16,2.31.66-.13.91-3.53.6-5.21-.11-.62-.09-.9-.04-1.46.05-.64.1-1.11.41-1.28.42-.23.91.36,1.41.14.23-.1.41-.35.54-.87.48-1.92-.56-4.04-.42-4.09.02,0,.06.03.42.61.45.74.53.91.62.9.17-.03.22-.75.19-1.34-.06-.97-.36-1.35-.17-1.54.24-.23,1.04,0,1.53.51.63.65.6,1.57.83,1.56.16,0,.25-.44.25-.47.1-.47-.1-.87-.13-.94-.4-.9-.68-5.46,1.42-7.14.7-.56,1.85-.93,2.12-1.76.28-.86.3-.91.3-.91.05-.25.09-.53.29-.84.11-.17.16-.25.22-.25.34-.03.96,2.1,1.1,4.25.13,1.88-.22,2.08-.35,4.68-.03.49-.28,5.63.7,5.83.24.05.48-.21.55-.29.89-.98-.68-2.94.24-4.13.21-.28.25-.11.61-.48.9-.93.92-2.27,1.47-2.43.2-.06.42-.05.42-.05.24,0,.37.06.42.07.54.01,1.01-5.49,1.33-5.5.21,0,.13,2.42.92,5.42.86,3.3,1.87,3.81,1.46,5.19Zm.58-17.41c-3.22.39.49,6.06-2.66,5.4-.17-.07-.36-.57-.28-.66,1.58-1.81-.32-3.56-.34-5.37.19.01.45-.06.56.04,1.29,1.43,2.12-1.38,3.37-.09-.3.32-.44.63-.65.67Zm12.52-23.14c2.88,1.11,1.45,3.86-.82,4.82-1.93.69.26-4.51.82-4.82Z"/>
      <path class="cls-1" d="m181.18,206.2s.01.01.02.02c.02,0,.04.01.06.02,0,0,0,0,0,0,.24.35.5.84.88.58.18-.58-.76-.59-1.11-.84.02.1.07.16.13.22t0,0Z"/>
      <polygon class="cls-1" points="266.4 80.07 266.4 80.07 266.4 80.07 266.4 80.07"/>
      <path class="cls-1" d="m276.93,67.07c.4-.13.43-.67.25-1.07-.11-.25-.3-.45-.53-.47-.5.34-.13,1.44.28,1.54Z"/>
      <path class="cls-1" d="m271.32,58.28c-.59-.42-1.77-.08-2.55-.11-.9.34-.56,1.74.45,1.58.83-.13,1.77-.74,2.1-1.47Z"/>
      <path class="cls-1" d="m269.65,156.89c-.52.34-.2,1.38.14,1.84.88.28.21-1.7-.14-1.84Z"/>
      <path class="cls-1" d="m265.57,224.11c-.59-.02-1.48,1.17-.84,1.45.45.02,1.51-1.03.84-1.45Z"/>
      <path class="cls-1" d="m263.28,75.07c-.28-.21-.53-.38-.77-.56-.72.68.33,1.75.77.56Z"/>
      <path class="cls-1" d="m260.37,221.89c.09-.05.2-.09.29-.14-.03-.05-.05-.11-.07-.16-.14.09-.38.09-.22.3Z"/>
      <path class="cls-1" d="m259.85,58.12c-.79.06-.94,1.14-.24,1.4.7.12.8-1.07.24-1.4Z"/>
      <path class="cls-1" d="m249.75,213.6c.07-.03.13-.05.16-.07-.03,0-.05.01-.06.01,0,0,0,0,0,0,0,0-.05.01-.09.04,0,0,0,0,0,0h0s0-.02,0-.02c.03-.04.04-.11.06-.18-.02.05-.04.09-.05.14.24-1.09,1.05-2.19.32-3.22-.24.22-.49.45-.85.79-.56-1.49-.46-3.28-1.79-4.29-.45.65-.77,1.21-.99,2-.59-1.71-1.93-3.3-1.98-4.88,2.51-.36-1.69-1.61-1.95-4.53-.49-3.97-4.15-4.53-4.79-7.87-1.34-1.36-1.56-.63-.67-2.47-.75-1.68-2.21-.72-3.23.02-1.8-.88-1.18.28-1.15,1.23.21,1.76-1.2,3.68.09,5.18.19-.58.4-1.2.22-1.8.66.21,1.35.98,1.92.94.02,0,.03-.02.05-.04,0,.01-.01.03-.02.04,0,0-.02,0-.03,0,0,.02,0,.04,0,.06.16-.07.3-.13.45-.21,0,0,.01,0,.02,0,1.75,5.28,2.1.93,2.63,3.33-.29,1.63.28,3.04.86,4.49.71,2.03.28,4.68,1.75,6.35.31-.55.29-.59.47-1.41.71,1.07.98,5.69,2.63,4.32.16-.42.22-.4.82-.07.02.6-.13,1.22-.16,1.82,0,0,0,0,0,0-1.13,1.21-1.14,1.41-.57,2.72.53,1.27.76,2.8,1.52,3.93.1-.16.12-.34.12-.52,0,.07,0,.15.01.22,1.17.61,1.77,2.59,1.48,3.82-.86-.36-.56-1.72-1.59-1.98-1-.37-1.31-1.19-1.61-2.1-.11,1.01-.18,1.98.14,2.92h0s0,0,.01,0h0s.02,0,.03.02l-.04-.02c-.55.86-1.03,1.77-1.6,2.61,1.51-4.56-.42-9.64-1.75-1.48-.01,0,0,.02,0,.03v-.02c-.1-.74-.2-1.48-.33-2.43-1,.85-1.24,3.73.22,2.52.05.03.11.06.16.09.05.88.36,1.54,1.41,1.64-.01.02-.03.03-.04.04,0,0,0,.01.01.02,0,0,0,0,0,0,.05.11.12.2.18.27-.07-.07-.13-.15-.19-.26-.55.42-1.01.9-.82,1.72-4.74-2.12-3.67,4.06-5.2,6.6-.38.52-.09,1.3.51,1.4,1.47.24,2.1,1.49,3.2,2.23-1.51.72-1.91-1.3-3.08-1.05-2.01.35,0-2.05-2.9-1.51v-.22s.03,0,.03.01c0,0,0,0,0,0,0-.04,0-.08.01-.12,1.81-1.56,2.68-4.44,2.24-6.66-2.14.49-2.04,4.36-2.22,6.45,0,0,0,0,0,0-.03.04-.07.08-.11.12-.03.04-.05.08-.09.11-.33.19-.68.31-1.01.38.33-.07.68-.19,1.01-.38-3.11-1.32-.13-1.11-.37-1.9-.89-1.11.7-2.89-.53-3.53-4.31.68-5.74,18.29-.12,6.52v.12s0,0,0,0c.13,2.29-2.96,6.88,1.83,4.11l-.07.09h0s0,0,0,0c0,0,0,0,0,0,.04-.01.07-.03.11-.04,0,0-.02-.01-.03-.03,3.95-3.24,1.37,1.88,4.78-1.92-.09.06-.19.11-.3.14.13-.05.25-.12.36-.22-.02.02-.05.05-.07.08.16-.1.3-.24.41-.41-.03.02-.07.05-.1.07,0,0-.02,0-.03.02.07-.07.15-.14.22-.23,0,0,0,0,0-.01,1.54-.45,3.74-.34,3.47-2.5.82-.42,1.8-1.9,2.06-.2,1.09.27,5.11-6.91,4.96-8.21.95-.73,1.77-1.27,2.52-1.9,1.67.51,2.53-1.07,3.8-1.56,1.79-1.11,1.4-3.68.32-5.29-.92,2.35-1.79,5.17-2.52.81.11-1.4,1.77-2.61.3-3.88-.18.51-.29,1.03-.77,1.34-.72-1.81-1.21-4.49-.88-5.39l-1.11-.16c-.42.64-1.06,5.26-2.07,3.25Zm-14.43-19.2s0,0,.01,0h0s-.02,0-.02,0Zm.01-.01c-.06-.07-.12-.14-.18-.21.08.09.16.18.24.27-.02-.02-.03-.04-.05-.06Zm3.67,36.68c.1.06.2.11.31.17-1,2.7-2.42,1.34-.31-.17Zm-4.27.8c-.04.22-.07.43-.12.64.08-.19.14-.39.2-.59-.08.44-.22.87-.42,1.27.09-.22.17-.45.23-.68-.1.25-.23.49-.36.73.21-.44.37-.9.48-1.38Zm-3.24.09c-.97,1.44-.87,2.31-.3,2.69-.57-.38-.67-1.25.3-2.69Zm-.18,3.61c.13-.14.27-.25.43-.31-.15.06-.29.17-.43.31Zm1.31,0s0,0,0,0c0,0,.01,0,.01,0,0,0-.02,0-.02,0Zm.72,1.2c-.1-.32-.23-.63-.45-.89.03.02.06.05.08.06-.02-.03-.05-.06-.07-.09.19.15.38.18.52.03-.1.13-.25.18-.45.07.17.25.27.53.36.82Zm-.21-1.61s-.03.03-.05.04c.13-.11.25-.24.4-.34-.13.09-.24.2-.36.31Zm3.03,2.43c.17-.05.34-.07.52-.06-.17,0-.35.03-.52.06Zm2.04.34s-.02,0-.03-.01c-.12-.07-.24-.13-.35-.18.31.07.61.12.89.09-.17.05-.34.08-.51.1Zm3.79-8.64s0,.02-.01.02c0,0,0,0,0,0,0,0-.01.01-.02.02,0,0,0-.01.01-.02-.02,0-.03.03-.04.05.02-.03.04-.06.05-.08,0,0,0,0,0,0Zm-.66-.11c.25-.14.46-.05.66.11-.23.06-.65.27-.66-.11Zm.46.49c.05-.09.09-.17.13-.26-.01.01-.03.03-.04.04.04-.03.06-.07.08-.11-.01.02-.02.06-.04.07.03-.03.07-.06.1-.09-.12.09-.16.22-.24.35Zm.43-4.59c.24,0,.42.01.56.05-.14-.03-.32-.05-.56-.05h0Zm.57,9.41c.08.06.16.12.24.18.02.05.04.1.07.14-.05-.15-.18-.23-.31-.32Zm-.1-8.68c.22-.02.39-.16.44-.31-.04.15-.22.29-.44.31Z"/>
      <path class="cls-1" d="m246.63,203.98c-.32.42.38,1.44.69.73-.03-.42-.23-.69-.69-.73Z"/>
      <path class="cls-1" d="m250.43,193.04c-.07-.09-.15-.18-.22-.26-.24.29-.09.56.22.26Z"/>
      <path class="cls-1" d="m249.85,207.42c.11-.35-.13-.53-.36-.74.05.29.06.58.36.74Z"/>
      <path class="cls-1" d="m249.84,213.54s0,0-.02,0c0,0,.02,0,.02,0Z"/>
      <path class="cls-1" d="m248.82,192.57s0-.01,0-.02c-1.11-.95-2.21-1.89-3.32-2.84-1.62-.09,1.95,4.69,2.18,5.61.32.93,2.03,2.4,1.95.76-1.04-.9-1.53-2.04-1.21-2.91.06-.17.18-.38.4-.6Z"/>
      <path class="cls-1" d="m249.45,206.63h0s0,0,0,0c.01.02.02.03.03.04,0-.03,0-.06-.01-.09-.02-.03-.04-.05-.06-.08-.06-.1-.14-.19-.23-.28-.06-.08-.13-.15-.19-.23.15.21.3.41.45.63Z"/>
      <path class="cls-1" d="m248.92,205.9c.06-.1.12-.2.18-.3-.06.08-.12.17-.18.26,0,0,0,0,0,0,0-.02,0-.04,0-.07,0,.03-.02.07-.03.11.03.03.05.07.09.1-.03-.03-.05-.06-.07-.09Z"/>
      <path class="cls-1" d="m245.7,187.83h.03c.05.17.16.33.3.45l1.48-.05c-.12-.08-.15-.22-.13-.43l1.08-.74c-.04-.06-.1-.16-.17-.27-.2-.33-.27-.51-.41-.75-.08-.14-.21-.34-.38-.57l-.98.02c-.27.4-.63.42-.88.19l-.95.94c.36,0,.99.79,1.02,1.21Z"/>
      <path class="cls-1" d="m245.62,182.14s-.04.09-.07.15c.05.03.1.06.16.09.1-.13.05-.19-.09-.24Z"/>
      <path class="cls-1" d="m244.39,237.89c.09.12.16.13.28.03-.01-.05-.03-.11-.05-.16-.07.05-.16.09-.23.13Z"/>
      <path class="cls-1" d="m245.47,193.71c-1.33-3.1-2.3-.36,0,0h0Z"/>
      <path class="cls-1" d="m243.53,189.08c.69-.13.38-.46.35-.93-.55.06-.31.51-.35.93Z"/>
      <path class="cls-1" d="m241.4,186.43c.04-.36.14-.59-.31-.73,0,.36-.1.64.31.73Z"/>
      <path class="cls-1" d="m238.19,211.47h0c.07-.09.14-.18.22-.26-.08.08-.16.16-.24.25,4.25,8.65,4.13,1.47.02.01Z"/>
      <path class="cls-1" d="m241.07,211.61c-.04-.12-.08-.24-.12-.36-.44.1-.26.39.12.36Z"/>
      <path class="cls-1" d="m240.25,191.49c-.12-.05-.24-.1-.36-.16-.09.09-.19.18-.28.27.13.12.27.24.4.36.08-.16.16-.32.24-.48Z"/>
      <path class="cls-1" d="m239.74,237.34s-.04-.03-.06-.04c-.03.05-.05.1-.09.15.05-.03.1-.07.15-.11Z"/>
      <path class="cls-1" d="m239.68,237.3c-.07.07-.13.15-.19.22.09-.05.15-.12.19-.22Z"/>
      <path class="cls-1" d="m239.23,181.73c-.41.22-.16.42.02.71.45-.29.2-.4-.02-.71Z"/>
      <polygon class="cls-1" points="238.69 204.54 238.54 204.5 238.59 204.67 238.69 204.54"/>
      <path class="cls-1" d="m238.88,216.51c-.16-.3-.46-1.65-.8-.84.18.34.26,1.39.8.84Z"/>
      <path class="cls-1" d="m238.07,220c-.05-.22-.12-.72-.48-.57-.51.61.4,1.81.48.57Z"/>
      <path class="cls-1" d="m237.6,154.74c0-.06.01-.12.01-.18-.01.05-.03.09-.04.15,0,0,0,0,0,.01,0,.01.01.03.01.04h0v-.02Z"/>
      <path class="cls-1" d="m237.39,206.45c.18-.53-.14-.89-.35-1.34-.65-1.38-.41-2.95-1.29-4.22-.88-1.42-.14-2.27.98-.57.07-1.21-1.59-4.17-2.53-2.91.36,2.45,1.14,7.75,3.18,9.03Z"/>
      <path class="cls-1" d="m235.92,226.11c.73-.27.78-1.45.71-2.13-.39-.42-1.23,1.75-.71,2.13Z"/>
      <path class="cls-1" d="m236.32,219.38c.02.18-.09.41.14.47.07-.24.2-.4-.14-.47Z"/>
      <path class="cls-1" d="m235.05,195.18c.19-.22.34-.42.29-.71-.15.08-.31.14-.47.22.06.16.11.32.18.49Z"/>
      <path class="cls-1" d="m235.16,208.35c-.11-.87.29-2.5-1.04-2.47-.54.84.22,1.8,1.04,2.47Z"/>
      <path class="cls-1" d="m227.94,230.9c0,.09.02.18.1.28.28-.28.45-.4.2-.82l1.32-.18c.04-.07.07-.14.11-.22-.03.07-.06.13-.08.2,0,0,0,0,0,0-.02,0-.02.02-.01.04,0,.05.02.11.03.15,0-.03,0-.07-.01-.11.07.09.13.19.19.28-.06-.12-.12-.23-.19-.34.37-.27.63-.59.52-1.07,0-.01.01-.03.02-.04,0,0,0,0,0-.01,0-.03,0-.06.01-.09.53-.53.38-1.17.28-1.81-.03.25-.07.5-.11.74.04-.25.08-.5.11-.76h0c.14.02.19.01.14,0-.06,0-.06,0-.13-.01h0c.04-.27.11-.46.21-.61-.07.15-.14.33-.2.59.43-.51.53-.84.48-.9.38-.27.92-.25,1.41-.5,0,0,0-.02,0-.03.07.25.31.49.8.72,1.34.09,1.24-2.11,1.79-2.99h.03s-.02,0-.03,0c.66-1.58,1.34-8.23-1.5-4.15-.22.82-.69,1.56-1.59,1.47,0,0,.02,0,.03,0-.04-.01-.08-.02-.12-.02.09.02.18.04.26.06-.1-.02-.21-.05-.32-.07,0,0,0,0,0,.01.12.27.22.53.32.78-.1-.26-.21-.52-.33-.79t-.01,0c-.08-.53-.41-1.04-.41-1.63,0-.12.01-.25.05-.38,1.87,1.13,2.7-1.74,3.39-2.99-1.48-.52-1.39-2.14-1.93-3.24-1.49-.46-1.56-1.72-1.68-2.92-.43-1.96-.99-4.52-2.21-5.96-1.49.43.09,5.17-1.54,5.15-.33.05-.54.34-.28.59.77.79-.41,2.73.69,3.17.34-.34.61-1.09,1.17-1.03.57,2.3.61,5.13,1.21,7.56,0,1.32-.63,2.68-.09,3.89.01.03.03.07.05.11-.02-.04-.04-.08-.06-.11h0l-.03.02c.02.06.03.12.05.19l-1.84.57c-.1.07-.2.16-.36.28l-1.25.03c-.11-.14-.25-.3-.45-.45h0c.08-.11.16-.21.23-.32-.07.1-.15.2-.23.3t0,.01l-.58.04c.17.46.14,1.15.06,1.88,0-.62-.02-1.25-.06-1.88-.09-1.46-.26-2.93-.28-4.41.01,0,.03,0,.05-.02-.01,0-.02,0-.03,0,0,0,0,0-.01,0-.01.01-.03.03-.03.03.16-.79-.77-1.32-1.28-1.19-1.59,1.09-1.54-2.75-2.16-3.56-.34,3.03,1.16,5.52,1.99,8.38.09,1.09-.51,2.49.63,3.36.45.59.53,1.27.44,2-.21,1.72-1.31,3.68-.28,5.23.72-.38,1.3-1.55,1.48-2.68l1.89.21s0-.01,0-.02Zm5.57-6.75c-.67.42-1.26.92-1.22,1.41-.07-.51.54-1.01,1.22-1.41Zm-8.11,4.03c.01-.06.01-.13.02-.19.04.47.18.82.49.97-.53-.1-.56-.42-.52-.78Z"/>
      <path class="cls-1" d="m234.79,214.65c-.38.24-.17.61-.09.96.11-.35.49-.67.09-.96Z"/>
      <path class="cls-1" d="m235.02,239.89c-.2-.16-.38-.16-.59-.09.18.17.42.38.59.09Z"/>
      <path class="cls-1" d="m234.71,215.69h0s0-.05-.02-.08c0,.01,0,.03-.01.04,0,0,0,0,0,.01t-.01.01h0s.02.01.03.01Z"/>
      <path class="cls-1" d="m234.1,153.72c.79-.33-.38-1.48-.94-1.44-.55.57.4,1.27.94,1.44Z"/>
      <path class="cls-1" d="m233.42,199.18c.01-.32-.14-.47-.41-.59.06.26.16.47.41.59Z"/>
      <path class="cls-1" d="m233.18,198.5s-.12.04-.18.09c0,0,0-.01,0-.01,0,0,0,0-.01,0t0,.01c.09-.05.15-.08.18-.1Z"/>
      <path class="cls-1" d="m232.95,227.6c.03-.05.05-.11.08-.17-.05-.03-.11-.06-.16-.09-.11.14-.08.21.08.26Z"/>
      <path class="cls-1" d="m231.66,220.66s0,.01,0,.02c.05.01.11.01.16.03-.05-.01-.11-.03-.16-.05Z"/>
      <path class="cls-1" d="m231.66,201.58s.03-.09.04-.13c-.01.01-.02.03-.03.04,0,.03,0,.07,0,.09Z"/>
      <path class="cls-1" d="m231.69,201.45s0,0-.01,0c-.07.1-.13.19-.2.29.07-.09.15-.2.22-.28Z"/>
      <path class="cls-1" d="m231.07,195.07c.73-.51.47-1.36.57-2.05-.41-1.35.3-3.74-1.3-4.2-.37,0-.39.34-.29.63.16.43.78,1.27-.09,1.28-2.19-.22.29,3.91,1.11,4.33Z"/>
      <path class="cls-1" d="m231.16,154.31s-.07,0-.11,0c.05.01.09.03.15.05v-.05h-.03Z"/>
      <path class="cls-1" d="m230.93,196.63s-.07.1-.11.16c.08.08.16.16.24.24.22-.18-.01-.26-.13-.4Z"/>
      <path class="cls-1" d="m229.38,201.23c.6,1.08,1.27,1.22,2.29.2-2.19-.88-1.27-4.06-2.85-5.37-2.46-.58-.42,5.02.56,5.17Z"/>
      <path class="cls-1" d="m227.04,234.48c-1.16,1.19.08,2.93.34,4.31.59,1.12,1.38-.13,1.13-1.28.05-.01.09-.02.14-.03-.37-.82-.17-4.06-1.61-2.99Z"/>
      <polygon class="cls-1" points="228.33 232.83 228.19 232.79 228.24 232.93 228.33 232.83"/>
      <path class="cls-1" d="m227.83,217.39c.61-.23.38-1.17-.15-1.31-.4.26-.3,1.19.15,1.31Z"/>
      <path class="cls-1" d="m227.75,214.66c-.03-.16-.07-.18-.22-.1.03.16.07.18.22.1Z"/>
      <path class="cls-1" d="m224.21,193.38c-.08.05-.34-.3-.47-.22-.22.13.52,1.28.07,1.95-.14.21-.32.27-.39.54-.07.31.07.59.13.71.44.83,1.05,1.53,1.34,1.97.78,1.17.53,2.28.75,2.28.28,0,.78-1.72.67-3.42-.06-.88-.35-2.89-.42-3.19,0,0,0-.02,0-.04-.03-.28.37-.4.37-.58-.03-.75-2.23-1.13-1.7-2.21-.15-1.77-2.31-2.81-1.65-4.89,1.3,2.4,2.69.03,3.48,1.98.15.45.83.67,1.19.5.59-2.02-4.52-4.59-6.16-5.2.02,2.13.41,3.77.79,4.91.78,2.35,2.21,4.77,2,4.9Z"/>
      <path class="cls-1" d="m227.13,207.86s.1-.04.19-.07c-.1-.03-.18-.06-.24-.09.01.05.03.1.05.16Z"/>
      <path class="cls-1" d="m227.15,221.62c.01-.3-.06-.53-.32-.69-.53.24-.01,1.44.32.69Z"/>
      <polygon class="cls-1" points="227.05 205.12 226.92 205.1 226.97 205.25 227.05 205.12"/>
      <path class="cls-1" d="m226.14,222.96c.05.19.01.37,0,.56.04-.18.09-.38,0-.56Z"/>
      <path class="cls-1" d="m226.05,219.2c-.18-.38-.44-.18-.73-.07.25.04.51.26.73.07Z"/>
      <path class="cls-1" d="m225.2,183.37c.85.02,1.12-1.36.26-1.69-.93.66-2.31,1.54-.26,1.69Z"/>
      <path class="cls-1" d="m225.03,240.38c.05-.05.07-.11.02-.21,0,.07-.01.14-.02.21Z"/>
      <path class="cls-1" d="m225.01,240.53c0-.05.01-.1.01-.16-.03.03-.07.06-.11.09l.09.07Z"/>
      <path class="cls-1" d="m224.52,237.57c.29-.23.58-.47.91-.73-.24-.17-.42-.32-.44-.3-.22.33-.92.65-.47,1.03Z"/>
      <path class="cls-1" d="m224.29,199.28c-.07-.26-.25-.52-.56-.97.07.85.13,1.53.21,2.48.32-.81.46-1.14.35-1.5Z"/>
      <polygon class="cls-1" points="224.15 238.73 224.27 238.65 224.14 238.59 224.15 238.73"/>
      <path class="cls-1" d="m224.95,214.71c-.92-1.17-1.25-2.52-1.37-3.95-1.1-.9-2.3,1.35-1.56,2.11.65.82,1.08,1.64.96,2.71.45,1.02,1.39-.51,1.96-.88Z"/>
      <path class="cls-1" d="m223.03,180.82c.31-.69,1.11-.09,1.25-.78-4.05-2.74-2.22,2.81-1.25.78Z"/>
      <path class="cls-1" d="m223.67,206.82c.09-.67-.56-1.76-1.04-.85-.69,1.32.81,3.1,1.04.85Z"/>
      <path class="cls-1" d="m222.45,228.16c.09.06.18.12.27.18.03-.06.06-.11.09-.17-.03-.06-.05-.12-.07-.18-.09.05-.19.11-.28.16Z"/>
      <path class="cls-1" d="m222.35,201.55c.16,0,.2-.03.15-.19-.16-.01-.2.03-.15.19Z"/>
      <path class="cls-1" d="m222.19,203.76c.07-.1.11-.17.16-.23-.2-.03-.16.03-.16.23Z"/>
      <path class="cls-1" d="m222.09,223.39c-1.01-2.71-.5-6.19-1.94-8.79-.49.59.51,1.63-.65,1.77,0-.03-.01-.06-.01-.09l-.05.05c.09-.63-.25-1.63-1.03-1.39-1.03,1.44-.38,2.8.2,4.24.01-.07.02-.14.03-.21,0,.1,0,.21,0,.31-.01-.03-.03-.06-.03-.09,0,.05-.01.1-.02.16.01,0,.03.02.05.03,0-.02,0-.04,0-.06,0,0,.01,0,.02-.01-.02.02-.03.04-.03.07.21.12.37.22.51.32-.14-.09-.3-.18-.51-.32-.08.83-.12,1.63.82,2.05,0,.02,0,.03-.01.05.03.02.05.04.08.07-1.09,1.4.18,3.61-.71,5.19-.47-3.45-.29-7.08-2.24-10.14-.11-2.97-.3-6.09.08-8.97,1.13-.76.9-3.3-.73-2.48-2.85,2.58-2.03,2.52-2.12,6.24-.15-.36-.24-.74-.31-1.11-.4-2.46.78-5.09.02-7.3-.23.24-.47.49-.65.76-2.45-4.67,3-3.13-.69-10.02-.36,3.14-1.34,6.39-1.23,9.52.81,5.09-2.26,9.76-1,14.8l.63-.1c-.19.08-.4.11-.63.1.81,2.12,3.13,1.21,2.52,4.63-.45-.06-.89-.11-1.5-.19-.65.86.02,3.09.74,3.68,1.32.97,1.22,2.12,2.47,3.03.11-1.02.03-1.34.09-2.19.82-.97,1.92,1.26,1.69,1.95-.76,2.65.92,4.55,2.33,1.42-.03.05-.07.1-.1.16.04-.08.1-.14.13-.22,0,.01-.02.03-.03.04.04-.04.06-.08.07-.13,0,0,0,0,0,0-.02.02-.03.07-.05.09,0,0,.01-.01.02-.02-.02.02-.03.05-.04.08.03-.05.07-.1.1-.15-.76-.74.87-1.31,1.03-2.07,1.56-2.14,3.99-.91,2.68-4.73Zm-3.41-4.1s.01-.01.02-.01c0,0,0,0,.01,0-.01,0-.02,0-.03.01Zm.25-1.24c-.04-.16-.07-.33-.07-.5-.04.2-.08.41-.12.62.03-.3.07-.6.13-.9,0,.09,0,.19,0,.28.03-.13.07-.26.12-.39-.08.29-.1.58-.05.88Zm-7.36-1.51c-.01.26-.1.51-.23.73.16-.32.22-.67.26-1.04,0,.1-.02.21-.03.31Zm.84.22s0-.04,0-.07c0,0,0-.02,0-.02,0,.03,0,.06-.01.09Zm.57.57s-.01.04-.02.05c.01-.05.02-.09.03-.14,0,.03,0,.06-.01.08Zm.07-2.27c0,.36,0,.69.01,1.01-.01-.32-.03-.65-.01-1.01Zm-1.29-.1c-1.56-4.4.91.78,1.03-5.13.03.18.07.36.1.56.28,1.63.48,3.74-1.13,4.57Zm5.11,9.98c-.13-1.71.49-3.01-1.11-3.98-1.04-.91.83-1.47-.6-3.53-.7-2.02-.34-3.77,1.36-.91v.07c.03,2.89,1.9,5.56.35,8.34Zm2.75-4.67c-.01-.1-.04-.17-.09-.24.02.03.04.05.06.08-.03-.14-.07-.28-.11-.42.06.21.12.41.17.62,0-.07-.03-.14-.07-.2.01.05.02.11.03.16Z"/>
      <path class="cls-1" d="m221.1,208.7c.87-.57.74-.79.32-1.5-.92.36-.82.63-.32,1.5Z"/>
      <polygon class="cls-1" points="220.82 188.23 220.66 188.15 220.68 188.3 220.82 188.23"/>
      <path class="cls-1" d="m220.39,166.38c.19,0,.38-.03.56-.05-.03-.01-.44-.2-.56.05Z"/>
      <path class="cls-1" d="m220.25,232.35c.05.01.11.02.16.03.03-.05.05-.11.07-.17-.16-.06-.2,0-.24.14Z"/>
      <path class="cls-1" d="m220.03,230.98c1.87-.99-.68-1.94,0,0h0Z"/>
      <path class="cls-1" d="m220.64,200.51c-.13-.33-.23-.76-.45-1.11-2.09-2.66-.57,3.24.45,1.11Z"/>
      <path class="cls-1" d="m219.17,204.9c0,.84-.11,1.48.8,1.47l-.8-1.47Z"/>
      <path class="cls-1" d="m219.97,231.06s.06-.01.09-.01h0s-.01-.05-.02-.07c0,0-.01.01-.02.02-.01.02-.03.04-.04.07Z"/>
      <path class="cls-1" d="m218.78,232.55c.69-.19.85-.92,1.19-1.48-.77.11-1.32.66-1.19,1.48Z"/>
      <path class="cls-1" d="m219.01,208.6c-1.38-.23.13,6.16.52,2.2h-.05c-.07-.74.2-1.64-.47-2.2Z"/>
      <path class="cls-1" d="m218.93,234.07c-1.59-.51-1.65,1.18-2.1,2.25-.13.45-.46.98.08,1.34.47.31.71-.44,1.09-.38,1.19.17.98-1.06,1.21-1.81,0,0-.01,0-.01-.01,0,0,0,.01-.01.02,0,.01-.01.02-.02.03,0,0,.02-.01.02-.02-.01.01-.02.02-.03.03,0,0,.02-.03.03-.04-.02,0-.03,0-.05,0,.02,0,.05,0,.06-.03.33-.52.57-1.35-.26-1.38Z"/>
      <path class="cls-1" d="m218.71,186.29s.07-.09.11-.14c-.09-.03-.18-.07-.27-.1-.05.16,0,.22.16.24Z"/>
      <path class="cls-1" d="m217.72,213.23s-.1.06-.15.09c.07.03.13.05.2.07-.01-.05-.03-.11-.05-.16Z"/>
      <path class="cls-1" d="m215.82,184.91c.3-1.31.6-1.33,1.38-.23.9.43.72-.96.37-1.37-.72-1.21-2.67-.49-2.48.93.02.34.28,1.22.73.67Z"/>
      <path class="cls-1" d="m217.42,210.56c-.2.38.08.82.11,1.24-.02-.42.3-.96-.11-1.24Z"/>
      <path class="cls-1" d="m217.02,203.01c.26-.22-.05-.6-.07-.9-.09.07-.18.14-.26.21-.03.28.21.46.33.69Z"/>
      <path class="cls-1" d="m216.11,199.68c-.36-.23-.81-.45-1.27-.83.4,2.1-.98,4.98,1.02,6.17l.03.14s.06-.04.09-.07l-.05-.04c.65-1.77.02-3.59.18-5.38Z"/>
      <path class="cls-1" d="m215.12,235.78s0,0,0,0h0s-.02,0-.02,0h0s0,0-.01,0c0,.01,0,.03-.01.04.22.19-.18.17.1.16.07,0,.12-.05.13-.1,0-.02,0-.04-.01-.07-.09-.26.05.06-.16-.03Z"/>
      <path class="cls-1" d="m215.09,235.76h0s0,0,0,0h0Z"/>
      <path class="cls-1" d="m214.43,190.04c1.01-1.6-.13-3.32-.38-5-1.35,1.3-1.58,3.99.38,5Z"/>
      <path class="cls-1" d="m210.92,194.57c-.11-.14-.2-.27-.3-.4-.2.31-.09.61.01.94.09-.16.18-.33.29-.54Z"/>
      <path class="cls-1" d="m209.98,205.29c-.14-.18-.36-.18-.56-.24,0-.01.01-.02.01-.03.02-.01.04-.08.06-.11-.03.04-.07.08-.11.12.18.16.32.34.59.26Z"/>
      <path class="cls-1" d="m209.54,202.67c.01.06.03.12.04.18.06,0,.12-.02.18-.03,0-.18-.05-.22-.22-.16Z"/>
      <path class="cls-1" d="m208.5,189.68c.69.38,1.16-1.36,1.37-1.86-.55-.92-1.46,1.28-1.37,1.86Z"/>
      <path class="cls-1" d="m209.39,205.03c.1-.1.16-.22.22-.34l-.22.34Z"/>
      <path class="cls-1" d="m209.53,204.87s-.03.03-.03.04c-.02.03-.04.07-.05.11.03-.04.06-.12.09-.15Z"/>
      <path class="cls-1" d="m209.36,183.35c.28-.85-.85-.01-1.21.11.13.62.85-.01,1.21-.11Z"/>
      <path class="cls-1" d="m208.67,206.93c-.72,1.07-.96,2.68-.47,3.97.14-1.23,1.98-2.76.47-3.97Z"/>
      <path class="cls-1" d="m208.4,214.62c.04-1.1-.24-2.22.22-3.3.02-.05-.29-.24-.45-.37l.03-.05c-1.75.49-2.15,7.66.2,3.72Z"/>
      <path class="cls-1" d="m207.9,192.03c-.07-.11-.15-.21-.22-.31-.26.09-.13.3-.1.5.1-.07.21-.13.32-.19Z"/>
      <path class="cls-1" d="m207.73,237.44c-.07-.37-.2-.36-.49-.2.07.16.13.3.2.46.09-.09.2-.17.29-.26Z"/>
      <path class="cls-1" d="m205.44,211.69c.49-.39.24-1.2,1.15-1.36.45-.09.37-.77.18-1.12-.31-.53-.57,0-.81.17-.82.38-1.58,1.85-.52,2.31Z"/>
      <path class="cls-1" d="m205.93,219.9c-.03,3.55,2,2.19.45-.13-.16.05-.3.09-.45.13Z"/>
      <path class="cls-1" d="m203.49,224.66h0s0-.03.01-.03c0,0,0,0,0,0-.01-.01-.03-.02-.05-.03,0,.02.01.04.01.06-2.66,2.71-3.64-2.89-3.53-4.83.05-.98-.21-1.96-.34-2.94-.23-.7-1.13-.25-1.77-.45.4,2.56.35,5.11,1.05,7.57h-.03v.13s.02-.05.03-.08c-.02.14-.03.29-.04.43,0-.12,0-.24,0-.35-.13.37-.18.74,0,1.11,0-.12,0-.25,0-.37,0,.15,0,.3.03.44-.01-.02-.03-.05-.03-.07v.11s.04.03.06.05c.59,4.63,1.79,1.22,3.84,2.17,1.3-1.01,1.79,1.63,2.22.4.1-.58-.33-1.06.09-1.56,1.02.46.12,2.14,1,2.69,1.15-.56.54-2.41.45-3.42-.56-2.13-1.23-2.18-3.02-1Zm-4.6-.63s0,.01.01.02c.05.1.1.2.14.29-.04-.09-.08-.18-.14-.27,0,0,0-.01,0-.02t-.01-.01s0,0,0,0Zm.01,1.25c.16-.19.22-.39.22-.58,0,.19-.05.38-.22.58Z"/>
      <path class="cls-1" d="m205.98,231.26c.13-.13.27-.26.4-.38-.09-.16-.16-.26-.22-.37-.45.2-.53.36-.18.75Z"/>
      <path class="cls-1" d="m204.4,237.16c.9-.92,1.89-1.52,1.44-2.47-1.34-.22-1.21,1.11-1.44,2.47Z"/>
      <path class="cls-1" d="m205.92,201c-.11-.13-.15-.18-.19-.24-.07.28-.46.59-.21.84.13-.21.28-.42.4-.6Z"/>
      <path class="cls-1" d="m205.3,213.38c-.15.07-.3.15-.45.22.09.16.17.34.26.51.53-.11.36-.29.19-.72Z"/>
      <path class="cls-1" d="m205.07,232.68c-.05.08-.11.16-.17.24.05.02.11.04.17.05.11-.1.11-.18,0-.29Z"/>
      <path class="cls-1" d="m204.52,208.17c0-.06,0-.12.01-.19-.18.05-.37.02-.3.27.09-.03.2-.05.29-.08Z"/>
      <path class="cls-1" d="m204.05,230.75c.07-.1.15-.2.28-.38-.14-.1-.28-.2-.42-.3-.36.31-.11.45.14.68Z"/>
      <path class="cls-1" d="m201.89,201.25c-.13.4.31.8.77.78,1.37,0,1.15-1.52,1.26-2.41.04-3.36-1.79.45-2.03,1.63Z"/>
      <path class="cls-1" d="m203.59,188.05c-.03-.07-.08-.17-.13-.26-.24.18-.36.3-.14.57.09-.09.18-.2.27-.3Z"/>
      <path class="cls-1" d="m203.18,233.29c-.04.53-.42,1.13.1,1.52.43-.38.14-.99.17-1.5-.09-.01-.18-.02-.27-.03Z"/>
      <path class="cls-1" d="m203.24,223.5h0c.03-.09.04-.2.05-.31,0,.11-.01.22-.04.31.05-.05.09-.11.13-.17h0c.07-.1.1-.22.11-.33h0c.24-.4.51-.81.2-1.17-.01,0-.02.01-.03.02h0c-.19.09-.28.24-.32.42.04-.18.14-.33.32-.42l.75-3.03h0s0-.06-.02-.09c-.04-.07-.09-.11-.16-.16,1.15-1.2-.13-2.7-.58-3.93-1.52-.53-1.86,3.15-1.21,4.06,1.17,2.29-1.7,3.97,1.04,5.89-.08-.37-.16-.72-.24-1.09h0Z"/>
      <path class="cls-1" d="m202.77,213.08c.55,0,.74-.92.2-1.03-.04.32-.55.84-.2,1.03Z"/>
      <path class="cls-1" d="m201.36,239.71c-.16.35-.3.84.04,1.15.76-.76,1.46-3.52,1.13-4.61-4.34,2.53.13,1.62-1.17,3.46Z"/>
      <path class="cls-1" d="m198.84,198.35c1.99.02,3.62-5.99,3.63-7.79-.61.63-1.25,1.3-1.9,1.96,0-.03-.02-.05-.03-.08,0,.01,0,.02-.01.03v-.03s-.07.2-.07.2l.15-.02h0s0,0,0,0c-.51.54-1.11,2.54-1.92,1.24-.88-.38-1.72.84-1.47,1.67.14.85-.22,1.34-.91,1.71-1.42,1.56-1.26,0-1.89-.91-1.87-.76.3-2.12-.53-3.08-1.79,1.11-1.74,6.84-2.88,9.18h0s0,0,0,0c0,0,0,.02,0,.03,0,0,0,0,0,.01,0-.01.01-.04.01-.05-.36-.29-.51-.61-.55-.93-.13-1.3,1.67-2.85.88-4.16-2.13.35-1.98,2.99-1.81,4.25.09.96.12,1.93-.5,2.89-.26.4-.49.88-.1,1.46,2.62-4.49,1.31-.84,2.68-1.73.82-1.42,2.37-2.31,2.77-4.01.03-.17.29-.3.47-.41,1.31-.52,2.5-2.13,4-1.45Zm-7.76,4.11s-.01,0-.02,0c0,0,.02,0,.03,0,0,0,0,0,0,0Zm.09,0s-.04-.01-.05-.01c.11.01.21,0,.31,0-.08,0-.17.02-.26.01Zm-.14,0s.01,0,.02,0c0,0-.02,0-.02,0,0,0,0,0,0,0,.35-.51.64-.82.88-.99-.23.17-.52.48-.88.99Zm1.34-.48c.16-.22.2-.45.13-.59.07.13.04.37-.13.59Z"/>
      <path class="cls-1" d="m201.87,207.43c.41.07.42-.32.53-.6-.27-.52-.68.38-.53.6Z"/>
      <path class="cls-1" d="m201.79,202.83c-.78.28-.15.73.14,1.22.68-.45.68-1.15-.14-1.22Z"/>
      <path class="cls-1" d="m201.13,185.19c.2-.24.31-.38-.04-.56-.2.24-.31.38.04.56Z"/>
      <path class="cls-1" d="m198.41,209.52c-.67.86-.47,2.22-.67,3.27.05,0,.11,0,.16.01-.55,3.15,1.45,2.79,1.05-.18-.34-1.84,1.36-2.87,1.56-4.51.4-3.84-1.24.61-2.1,1.4Z"/>
      <path class="cls-1" d="m199.91,168.81c.1,0,.15,0,.17,0-.01,0-.11-.02-.17,0Z"/>
      <path class="cls-1" d="m199.75,213.25c.38-.2.17-.92.28-1.32-.69-.51-.96,1.14-.28,1.32Z"/>
      <path class="cls-1" d="m199.47,187.81c-.08-.03-.16-.05-.24-.09,0,.05-.01.11-.02.16.12.07.2.05.26-.07Z"/>
      <polygon class="cls-1" points="199.24 203.74 199.4 203.68 199.28 203.57 199.24 203.74"/>
      <path class="cls-1" d="m199.18,205.46c.07,0,.13,0,.24-.02-.11-.07-.18-.11-.25-.16,0,.06,0,.12,0,.18Z"/>
      <path class="cls-1" d="m198.92,192.2c-.16.03-.18.08-.1.22.16-.03.19-.08.1-.22Z"/>
      <path class="cls-1" d="m198.25,228.91c.05.09.11.18.16.26.05-.05.09-.1.13-.15-.05-.16-.13-.2-.29-.11Z"/>
      <path class="cls-1" d="m198.04,207.76c.09-.09.18-.18.26-.26-.32-.33-.56-.08-.26.26Z"/>
      <path class="cls-1" d="m197.73,232.03c-.08.49-.36,1-.07,1.43.7-.34.86-.8.07-1.43Z"/>
      <path class="cls-1" d="m197.13,188.46c-.53.82-1.68,1.52-1.56,2.56,1.19,0,2.25-1.06,2.89-2-.38-.64-.63-1.28-1.32-.55Z"/>
      <path class="cls-1" d="m197.63,231.83l.03.13s.05.03.07.05c.01-.05.02-.09.02-.13-.02.01-.03.02-.04.04.03-.03.02-.06-.07-.09Z"/>
      <path class="cls-1" d="m195.55,183.85c3.51-.47,2.48-3.74,0,0h0Z"/>
      <path class="cls-1" d="m197.42,236.14c-.14.03-.24.04-.32.05.13.19.16.09.32-.05Z"/>
      <path class="cls-1" d="m194.95,225.56c.09,1.67,1.12,2.68,2.01,1.65-.07-1.6-.71-1.44-2.01-1.65Z"/>
      <path class="cls-1" d="m196.23,180.41c0-.05-.01-.1-.02-.16-.14,0-.18.04-.13.19.05-.01.1-.02.16-.03Z"/>
      <path class="cls-1" d="m195.86,203.04c.05-.19.09-.36.13-.53-.47-.17-.77.4-.13.53Z"/>
      <path class="cls-1" d="m195.84,184.62c.02-.29-.19-.51-.3-.77,0,0,0,0,0,0h-.01c.09.28-.02.65.3.78Z"/>
      <path class="cls-1" d="m195.68,206.64c-.9.28-.68,1.25.07,1.48.37-.5.11-.94-.07-1.48Z"/>
      <path class="cls-1" d="m195.49,209.87c-.49.07-.27.5-.24.86.11-.28.37-.57.24-.86Z"/>
      <path class="cls-1" d="m195.26,210.85s0-.07,0-.11c-.02.04-.03.07-.04.11,0,0,.04,0,.05,0Z"/>
      <path class="cls-1" d="m195.25,210.85c-.07-.02-.13.01-.2.03.07,0,.13-.02.2-.03Z"/>
      <path class="cls-1" d="m195.09,139.58c-.94-.04-1.91,1.23-1.22,1.99,1.06.24,2.33-1.45,1.22-1.99Z"/>
      <path class="cls-1" d="m195.08,162.86v-.08s-.04.01-.05.03l.05.05Z"/>
      <path class="cls-1" d="m194.85,222.87c-.21.28-.36.51-.1.82.11-.13.22-.26.3-.37-.09-.2-.15-.32-.2-.45Z"/>
      <path class="cls-1" d="m169.21,116.99c.79-2.22,2.74-.55,4.26-1.23-3.08-3.23.73-5.84,2.5-1.53,3.13,4.32,9.85.53,14.41,1.03.01.16.03.32.05.49,1.99-.14,3.78-.49,5.18-2.05-1.63-1.63-3.82-2.29-5.89-3.19,2.69.21,5.11.86,7.47,2.15-.11-3.58-5.08-3.13-7.43-4.78-7.46-3.64-14.7-.94-21.95.76-1.85.43-2.63,2.31-2.38,4.08.36,2.46,1.83,4.64,3.78,4.28Zm12.48-3.01c0,1.18-2.27,1.38-2.52.15-.12-1.19,2.35-1.14,2.52-.15Z"/>
      <path class="cls-1" d="m194.54,156.58s-.03-.03-.03-.05h-.02l.05.05Z"/>
      <path class="cls-1" d="m194.23,156.72s-.02.03-.03.04c.03,0,.05,0,.08,0,0,0-.05-.05-.05-.05Z"/>
      <path class="cls-1" d="m194.2,156.76c-.24-.03-.42.04-.57.26.26.05.42-.06.57-.26Z"/>
      <path class="cls-1" d="m193.81,171.07s.04-.01.06-.01c0-.01.01-.02.03-.03l-.09.05Z"/>
      <path class="cls-1" d="m193.66,169.64c-.6.32-.57,1.1-.08,1.51.18-.53.67-1.07.08-1.51Z"/>
      <path class="cls-1" d="m193.64,171.2s-.04-.03-.06-.05c0,.03-.02.07-.03.1l.09-.05Z"/>
      <path class="cls-1" d="m193.02,184.38c-.07-.02-.14-.03-.22-.05-.01,0-.03,0-.04,0,.08,0,.17.02.26.05Z"/>
      <path class="cls-1" d="m192.8,184.32c-.06-.01-.11-.03-.18-.04v.04s.12.01.18,0Z"/>
      <path class="cls-1" d="m192.62,184.32v.02s.09,0,.14-.01c-.05,0-.1,0-.14,0Z"/>
      <path class="cls-1" d="m192.44,212.43c.16-.17.32-.34.47-.49-.15-.22-.22-.33-.29-.44-.18.34-.64.61-.18.92Z"/>
      <path class="cls-1" d="m192.48,220.59c.44-.04.11-.37.11-.64-.35.02-.09.4-.11.64Z"/>
      <path class="cls-1" d="m192.54,213.74c-.57.14-.37.36-.28.76.47-.1.33-.38.28-.76Z"/>
      <path class="cls-1" d="m192.38,186.69c-.8.16-2.1,1.48-1.52,2.08.75.03,2.25-1.5,1.52-2.08Z"/>
      <path class="cls-1" d="m192.14,225.45c.07-.07.15-.16.22-.23-.09-.05-.18-.09-.28-.13-.05.14-.03.26.06.36Z"/>
      <path class="cls-1" d="m192.36,236.79c-.11-.07-.18-.12-.24-.17-.04.23.1.17.24.17Z"/>
      <path class="cls-1" d="m192.61,184.32c-.71.04-.89.84-1.19,1.38.69-.22,1.05-.71,1.19-1.38Z"/>
      <path class="cls-1" d="m191.51,166.51c.01.07.03.16.05.24.04-.06.07-.12.09-.18l-.15-.05Z"/>
      <path class="cls-1" d="m191.23,168.34c.94-.2.52-.95.34-1.6-.32.55-1.12,1.28-.34,1.6Z"/>
      <path class="cls-1" d="m191.14,195.49c.36.27.44-.06.65-.31-.43-.29-.45.01-.65.31Z"/>
      <path class="cls-1" d="m190.68,192.52c-.81-1.59-.82,1.56-1.67-.05-.11.07-.3.11-.31.2-.34,1.6-1.94,2.2-2.89,3.33-.68,3.07,4.93-2.53,4.87-3.47Z"/>
      <path class="cls-1" d="m190.38,182.57c-.23.3-.47.6-.69.9.24-.18.57-.53.84-.76-.05-.05-.09-.09-.15-.14Z"/>
      <path class="cls-1" d="m189.67,183.49h.01v-.02.02Z"/>
      <path class="cls-1" d="m189.1,230.39c-.46.31-.88.63-1.17,1.11,1.39,1.17,2.8-.18,3.95-1.38-1.12-.05-3.68-1.69-2.78.27Z"/>
      <path class="cls-1" d="m188.89,220.15c-.65,1.18-.92,2.41-.64,3.78.09.4.24.95-.34,1.37-.13-2.08-3.2-3.08-2.43-.28,0,.03.41.05.47-.03,1.36-1.2.2,3.88,3.07,3.6,1.76.13,1.42-7.73-.12-8.44Z"/>
      <path class="cls-1" d="m188.87,220.07s0,.05,0,.07c0,0,.02,0,.03.01.02-.03.03-.06.05-.09-.02,0-.05.01-.07.01Z"/>
      <path class="cls-1" d="m187.74,214.78c-1,1.01.36,2.89-.39,4.24-.31.82.77,1.21,1.52,1.05.19-1.59.64-4.69-1.13-5.29Z"/>
      <path class="cls-1" d="m185.84,201.02c1.04-.34,4.18-5.02,1.61-3.97-.4,1.25-5.02,1.9-3.6,3.09.96-.27,1.34.59,2,.92,0-.01,0-.03,0-.04Z"/>
      <path class="cls-1" d="m187.45,167.25c-.91.27-1.24,1.01-1.58,1.79,2.41,3.29,4.07-1,1.58-1.79Z"/>
      <path class="cls-1" d="m187.22,206.74c.42-.88,1.07-2.32.29-3.08-.92.59-.63,2.12-.29,3.08Z"/>
      <path class="cls-1" d="m187.52,166.85c-.03.13-.07.26-.1.39.01,0,.03,0,.03.01,0,0,.01,0,.02,0,.01-.13.05-.26.05-.4Z"/>
      <path class="cls-1" d="m187.19,229.96c.16-.1.31-.2.57-.37-.22-.26-.38-.47-.54-.66-.62.32-.29.61-.03,1.03Z"/>
      <path class="cls-1" d="m187.16,167.24s.06,0,.06,0v-.38c-.02.12-.04.24-.06.37Z"/>
      <path class="cls-1" d="m186.93,102.73c.74-2.11-6.35.28-7.95-.71h0s0,0,0,0c-.04,0-.16.07-.17.07l.16-.05c-1.89.76-3.5-.05-5.28,1.63,1.59.75,20.64,3.05,13.25-.94Zm-8-.62s0,0,0,0h0Z"/>
      <path class="cls-1" d="m186.09,207.4c-.31.8-.01,1.38.78,1.75-.26-.57-.11-1.48-.78-1.75Z"/>
      <polygon class="cls-1" points="186.32 161.22 186.5 161.24 186.44 161.1 186.32 161.22"/>
      <path class="cls-1" d="m185.85,201.04v.02h0s0-.01,0-.02Z"/>
      <path class="cls-1" d="m185.53,202.43l.17.04h.03s-.2-.04-.2-.04Z"/>
      <path class="cls-1" d="m185.73,202.48s-.09.01-.11.02l.11-.02Z"/>
      <path class="cls-1" d="m185.32,229.65c.05-.11.09-.22.14-.33-.1-.06-.2-.12-.31-.18-.22.28-.13.39.17.51Z"/>
      <path class="cls-1" d="m184.88,163c.18.23.24-.03.38-.15-.19-.22-.24.03-.38.15Z"/>
      <path class="cls-1" d="m184.22,217.36c-.36.6-.09,1.24.34.39.03-.31-.13-.3-.34-.39Z"/>
      <path class="cls-1" d="m184.01,221.47c.52,0,.29-.45.39-.9-.56.29-.44.42-.39.9Z"/>
      <path class="cls-1" d="m183.89,227.82s-.01-.05-.02-.08c-.02.03-.05.09.02.08Z"/>
      <path class="cls-1" d="m183.54,210.82c.75-1.03-.22-1.09,0,0h0Z"/>
      <path class="cls-1" d="m183.08,203.24c.17,1.79,1.16-.51.6-.97-.48-.03-.49.76-.6.97Z"/>
      <path class="cls-1" d="m182.74,193.52c4-6.33-4.06.13-2.49,4.01,1.72-.82.86-3.01,2.49-4.01Z"/>
      <path class="cls-1" d="m177.42,160.19c2.72-1.26,5.56-2.72,6.26-5.38-2.77-.19-4.99,2.93-6.26,5.38Z"/>
      <path class="cls-1" d="m183.56,210.92s-.01-.07-.02-.1c0,.01-.02.03-.03.04.02.01.03.04.05.06Z"/>
      <path class="cls-1" d="m183.46,212.29c.02-.47.04-.94.05-1.42.01.01.03.03.04.04-.01-.02-.03-.04-.04-.05-1.62-2.18-1.93,2.25-.05,1.43Z"/>
      <path class="cls-1" d="m183.46,212.33h0s.03-.05.03-.05h0s-.02,0-.03,0v.03h0Z"/>
      <polygon class="cls-1" points="183.2 196.36 183.05 196.35 183.1 196.49 183.2 196.36"/>
      <path class="cls-1" d="m182.75,222.13c-.02-.06-.05-.12-.07-.19-.04.09.03.14.07.19Z"/>
      <path class="cls-1" d="m182.02,199.3c.16-.38.28-.65.36-.92-.66-.62-1.4.49-.36.92Z"/>
      <path class="cls-1" d="m180.96,205.22s0,.01-.01.02h0s.03.05.05.06c0-.02-.01-.04-.03-.07.06-.05.1-.11.13-.18-.02.04-.03.09-.05.13,1.25-.64.86-2.46,1.17-3.66-1.96-.24-1.86,2.36-1.27,3.7Z"/>
      <path class="cls-1" d="m181,205.31s.04-.08.05-.12c-.03.02-.05.03-.09.05.02.03.02.05.03.07Z"/>
      <path class="cls-1" d="m180.41,164.04s0,0,0,.01c.01,0,.02.02.03.03l-.03-.04Z"/>
      <path class="cls-1" d="m180.27,216.78c-.03-.09-.04-.18-.05-.27-.03.11,0,.19.05.27Z"/>
      <path class="cls-1" d="m180.22,216.51c.11-.49.86-1.3.15-1.69-.77.39-.49,1.17-.19,1.77,0,0,0-.02,0-.03,0,.01,0,.03,0,.04.01.02.03.04.03.06,0-.05,0-.1,0-.16Z"/>
      <path class="cls-1" d="m179.21,212.3c.2-.12.53-.25.55-.48-.3-.06-.42.23-.55.48Z"/>
      <path class="cls-1" d="m179.15,212.33s-.07.05-.08.05h.01s-.03.04-.07.08c0,.02,0,.03,0,.05.03-.04.06-.08.08-.11-.02.03-.04.07-.03.11.05-.05.09-.12.13-.19-.04.02-.07.05-.1.08.02-.02.03-.05.05-.07Z"/>
      <path class="cls-1" d="m178.81,203.27c-.01.13,0,.25.04.38.01,0,.03,0,.04-.01-.04-.13-.06-.25-.08-.37Z"/>
      <path class="cls-1" d="m178.85,203.44s0,0,0,0c0,.07.02.14.05.21.45-.72,1.62-3.41.62-3.87-.53,1.11-.92,2.26-.7,3.5,0-.02,0-.05.01-.07,0,.08,0,.16.02.24Z"/>
      <path class="cls-1" d="m175.35,208.08c.01,1.54,1.48.79,1.19-.47-.62-.94-1.2-.76-1.19.47Z"/>
      <path class="cls-1" d="m175.91,196.69s-.08.07-.12.11h.24s-.08-.07-.12-.11Z"/>
      <path class="cls-1" d="m168.45,167.37c.08-.09.17-.18.25-.27-.07-.09-.15-.19-.22-.28-.26.2-.32.32-.03.55Z"/>
      <path class="cls-1" d="m166.65,165.92c1.14.28,1.82-1.42.65-1.62-.79-.01-1.38,1.1-.65,1.62Z"/>
      <path class="cls-1" d="m165.22,157.18c.02-1.37-.18-2.69-1.05-3.81-1.98-1.65.95,7.71,1.05,3.81Z"/>
      <path class="cls-1" d="m163.89,102.66c-.5.17-1,.53-1.36.42-1.25-.38-1.14,1.34-2.13,1.28.39,4.28,3.56.96,3.49-1.71Z"/>
      <path class="cls-1" d="m161.2,150.19c.09,1.44,1.32,0,.58-.61-.36-.13-.51.38-.58.61Z"/>
      <path class="cls-1" d="m161.93,141.47c-.57-1.92-.49-4.65-1.79-6.18-.73.68.72,9.3,1.79,6.18Z"/>
      <path class="cls-1" d="m159.12,132.96c.99-1.09-.24-3.17-.23-4.57.11-.01.21-.03.31-.05-.02-.89-.7-4.36-1.41-1.86.51,1.96-.42,5.3,1.33,6.49Z"/>
      <path class="cls-1" d="m156.97,106.14c.18-2.75-1.04-6.02-3.59-7.08-.05,1.29,3.65,14.66,3.59,7.08Z"/>
      <path class="cls-1" d="m214.37,191.64c-.09.07-.12.16-.15.19-.62.62.05,1.57.78,1.73.4.09.56.09.97.38.51.37.27.6,1.19,1.41.09.08.58,2.83,1.27,2.54.19-.08.42-1.03.85-3.11.09-.43.15-.78-.02-1.13-.22-.46-.66-.57-1.53-.91-2.02-.8-2.88-1.48-3.36-1.09Z"/>
    </g>
  </g>
</svg>