<?xml version="1.0" encoding="utf-8"?>
<!-- Generator: Adobe Illustrator 27.5.0, SVG Export Plug-In . SVG Version: 6.00 Build 0)  -->
<svg version="1.1" id="Layer_1" xmlns="http://www.w3.org/2000/svg" xmlns:xlink="http://www.w3.org/1999/xlink" x="0px" y="0px"
	 viewBox="0 0 759 606" style="enable-background:new 0 0 759 606;" xml:space="preserve">
<style type="text/css">
	.st0{fill:#D16E45;stroke:#272F31;stroke-width:9;stroke-miterlimit:10;}
	.st1{fill:#41727F;stroke:#111926;stroke-width:4;stroke-miterlimit:10;}
</style>
<path class="st0" d="M190.2,82.9c9.2,10.2,84.8,93.4,108.7,78.5c7.2-4.5,11.7-19,15.1-30.2c4.4-14.3,5.2-26.8,5-35.3
	c4.3,8.6,11.4,20.9,23,33.1c10.6,11.2,18.2,19.2,28.8,21.6c21.7,4.9,43.3-17.1,59-33.1c13.6-13.9,34.5-39.1,49-79.2
	c4.2,34.6,6.2,62.5,7.2,82.1c1.3,24.4,1.2,37.8,11.5,48.2c11.2,11.4,27.9,12.1,45.4,13c15.1,0.7,22.3-1.5,56.2-6.5
	c15.9-2.3,28.9-4,37.4-5c-10.8,6.2-26,17.3-36,36c-5.2,9.6-11.7,21.8-7.9,34.6c3.5,11.8,14.1,17.7,29.5,25.9
	c16,8.6,29.3,12.1,67,21.6c8.2,2.1,20.1,5,34.6,8.6c-28,8.2-51.5,16.3-69.8,23c-13.1,4.9-24.1,9.2-30.2,20.2
	c-6,10.6-4.5,21.9-2.9,32.4c3.2,21.8,13.5,38.6,22.3,49.7c-19.8-6.9-36.6-11.4-49-14.4c-23-5.5-30.4-5.6-36.7-1.4
	c-10.3,6.8-11.7,21-12.2,26.6c-2.3,23.1,12.4,40.7,16.6,45.4c-15.2-8.8-28.4-15.1-38.2-19.4c-17.9-8-24.8-9.4-31.7-7.2
	c-2.1,0.7-8.9,3.2-16.6,15.1c-13.8,21.4-13,46.2-11.5,59c-4.8-9.9-13-24.6-26.6-39.6c-14.8-16.3-27.8-30.6-43.2-30.2
	c-19.3,0.4-38.4,23.6-46.8,56.2c-0.2-2.5-2.5-25.8-21.6-36.7c-16.7-9.5-34.5-2.9-42.5,0c-14,5.2-22.9,13.7-39.6,33.1
	c-12.5,14.5-28.5,34.3-46.1,59c4.7-14.7,14.3-48.1,13.7-79.2c-0.1-5.7-0.6-14.4-4.3-24.5c-2.9-7.9-8-21.9-20.9-28.1
	c-8.5-4.1-16.4-3-31.7-0.7c-13,1.9-23.4,5.3-30.2,7.9c6.7-6.6,24.7-26,27.4-55.4c0.8-8.7,2.5-28.3-9.4-44.6
	c-5.8-8-13.5-13.3-46.8-25.2c-15.2-5.4-35.4-12.1-59.8-18.7c22-4.5,39.8-7.1,51.8-8.6c23.7-3,33.4-3,44.6-10.8
	c2.5-1.7,21.2-14.6,20.2-31c-0.3-4.3-1.9-9.5-29.5-36.7c-6.9-6.8-12.9-12.5-17.3-16.6c19.6,2.3,35.1,4.7,45.4,6.5
	c24.4,4.2,32.5,6.6,43.2,2.2c1.2-0.5,16.5-7.2,22.3-23c4-10.9,1.5-20.7-3.6-36.7C207.4,127.9,200.1,107,190.2,82.9z"/>
<g>
	<path class="st1" d="M277.2,234.9l-18.9,41.9l16.1,36.3l-20.1,2.8L242.5,289l-8.4,1.2l-1,28.7l-19.1,2.7l2.7-78.2l19.1-2.7
		l-1.1,32.6l6.8-1l15.7-34.6L277.2,234.9z"/>
	<path class="st1" d="M331.4,305l-48.3,6.8l2.7-78.2l19.1-2.7l-2.1,61.2l29.2-4.1L331.4,305z"/>
	<path class="st1" d="M377.1,298.6l-1.7-16.7l-17.7,2.5l-2.9,17.4l-20.2,2.8l16.5-80.1l35-4.9l11.1,76.2L377.1,298.6z M364.7,241.5
		l-4.6,28.1l13.9-2l-2.6-27.1L364.7,241.5z"/>
	<path class="st1" d="M458.1,281.6c-5,5.5-12.6,9-22.8,10.4c-10.2,1.4-17.7,0.1-22.3-4.1c-3.3-2.9-5.3-7.1-6.1-12.9
		c-0.4-2.5-0.5-5.4-0.3-8.5l1.7-50.1l19.1-2.7l-1.8,49.6c0,1.8,0.1,3.7,0.4,5.6c0.7,4.9,4,7,9.9,6.2c3.5-0.5,6.2-1.8,8.1-3.9
		c1.9-2.1,2.9-5.7,3-10.8l1.8-49.6l19.1-2.7l-1.7,50.1C465.7,268.3,463.1,276.1,458.1,281.6z"/>
	<path class="st1" d="M496.3,259.7c0.7,4.9,4.5,6.8,11.6,5.8c7-1,10.2-3.7,9.6-8.1c-0.3-2.3-1.8-4.1-4.4-5.2c-2.6-1.1-5.7-2-9.3-2.5
		c-3.6-0.5-7.2-1.2-10.8-2c-3.6-0.8-6.8-2.5-9.6-4.9c-2.8-2.5-4.5-5.8-5.1-9.9c-2.5-17.7,7.7-28.2,30.5-31.4
		c8.3-1.2,14.9-0.5,19.6,2.1c4.7,2.5,7.5,6.6,8.2,12.2c0.3,2,0.3,4,0,6c-0.3,1.9-0.6,3.3-1.1,4.2l-0.7,1.4l-18.8,2.6
		c1.3-1.8,1.8-4,1.5-6.5c-0.6-4.6-4-6.5-10-5.6c-7.6,1.1-11,4-10.3,8.8c0.3,2.4,1.8,4.1,4.4,5.2c2.6,1.1,5.7,1.8,9.2,2.1
		c3.5,0.3,7.1,0.9,10.8,1.6c3.6,0.7,6.8,2.3,9.6,4.8c2.8,2.5,4.5,5.9,5.1,10.4c1.3,9-0.5,16-5.2,21.1c-4.8,5.1-12.7,8.4-23.9,10
		c-11.2,1.6-19.1,0.7-23.7-2.7c-3.5-2.5-5.5-6.4-6.3-11.7c-0.3-2-0.4-4.2-0.3-6.6l0.1-1.7l19.1-2.7l0,1.3
		C496.2,258.5,496.2,259.2,496.3,259.7z"/>
	<path class="st1" d="M252.7,326.2l-2.6,78.2l-19.2,2.7l1-28.2l-20.7,2.9l-0.9,28.2l-19.2,2.7l2.7-78.2l19.1-2.7l-1.2,33l20.7-2.9
		l1.2-33L252.7,326.2z"/>
	<path class="st1" d="M288.2,400.5c-17,2.4-26.4-2.6-28.1-15c-0.3-1.9-0.3-4-0.2-6.2l0.3-8l19.1-2.7l-0.1,3.6c0,1.8,0.1,3.6,0.3,5.5
		c0.3,1.8,0.9,3.3,2,4.4c1.7,1.6,4.1,2.1,7.4,1.7c3.2-0.5,5.8-1.7,7.5-3.8c1.8-2,2.7-5.5,2.9-10.4l1.8-50.3l19-2.7l-1.8,51.8
		c-0.3,9.6-2.9,17-7.7,22.2C305.7,395.8,298.2,399.1,288.2,400.5z"/>
	<path class="st1" d="M383,380c-5,5.5-12.6,8.9-22.8,10.4c-10.2,1.4-17.7,0.1-22.3-4.1c-3.3-2.9-5.3-7.1-6.1-12.9
		c-0.4-2.5-0.5-5.4-0.3-8.5l1.7-50.1l19.1-2.7l-1.8,49.6c0,1.8,0.1,3.7,0.4,5.6c0.7,4.9,4,7,9.9,6.2c3.5-0.5,6.2-1.8,8.1-3.9
		c1.9-2.1,2.9-5.7,3-10.8l1.8-49.6l19.1-2.7l-1.7,50.1C390.6,366.7,387.9,374.5,383,380z"/>
	<path class="st1" d="M452.2,375.9l-48.3,6.8l2.7-78.2l19.1-2.7l-2.1,61.2l29.2-4.1L452.2,375.9z"/>
	<path class="st1" d="M513.5,367.3l-53.2,7.5l2.7-78.2l53.2-7.5l-0.6,16.9l-34.1,4.8l-0.4,14.6l28.2-4l-0.6,16.9l-28.2,4l-0.4,12.7
		l34.1-4.8L513.5,367.3z"/>
	<path class="st1" d="M558.7,283.2c8.1-1.1,14-0.2,17.9,2.9c2.9,2.3,4.7,5.5,5.2,9.6c0.2,1.4,0.3,2.9,0.2,4.5l-0.3,8.5
		c-0.2,4.7-1.1,8.6-2.8,11.7c-1.7,3.1-3.7,5.5-6.1,7l14,29.6l-21.4,3l-12.9-27.3l-6.6,0.9l-0.3,29.1l-20.3,2.9l2.7-78.2L558.7,283.2
		z M554.4,300.6l-7.9,1.1l-0.2,18.8l7.4-1c3.7-0.5,6.3-1.8,7.7-3.8c1.4-2,1.8-4.5,1.4-7.5C562,302.5,559.2,300,554.4,300.6z"/>
</g>
</svg>
